# xmcd CD database file generated by OrangeCD 4.2
#
# Track frame offsets:
#	150
#	16097
#	27920
#	43601
#	59260
#	75672
#	92478
#	111631
#	130237
#	146890
#	162640
#
# Disc length: 2453 seconds
#
# Revision: 0
# Processed by: cddbd v1.4PL0 Copyright (c) Steve Scherf et al.
# Submitted via: OrangeCD 4.2
#
DISCID=9309930b
DTITLE=Sixwire - Sixwire
DYEAR=1900
DGENRE=Country
TTITLE0=Way Too Deep
TTITLE1=I Hope She Comes Around
TTITLE2=Look At Me Now
TTITLE3=Saving Grace
TTITLE4=Say It Simple
TTITLE5=Please Believe
TTITLE6=Jack
TTITLE7=I Can't Help How I Feel
TTITLE8=Broken
TTITLE9=I Heard That
TTITLE10=Brave Soul
EXTD=
EXTT0=
EXTT1=
EXTT2=
EXTT3=
EXTT4=
EXTT5=
EXTT6=
EXTT7=
EXTT8=
EXTT9=
EXTT10=
PLAYORDER=
